<svg width="240" height="48" viewBox="0 0 240 48" fill="none" xmlns="http://www.w3.org/2000/svg">
<rect width="240" height="48" rx="4" fill="#1B9240"/>
<path d="M107.949 24.87H118.155V26.326H107.949V24.87ZM113.815 25.766C114.501 27.544 116.013 28.468 118.715 28.734C118.351 29.098 117.903 29.784 117.707 30.246C114.683 29.756 113.185 28.482 112.289 26.004L113.815 25.766ZM112.065 23.232H113.787C113.619 26.97 113.101 29.196 108.635 30.288C108.481 29.868 108.061 29.224 107.739 28.902C111.673 28.048 111.925 26.368 112.065 23.232ZM107.053 20.026H108.747V22.7C108.747 24.87 108.453 28.062 106.843 30.106C106.535 29.826 105.793 29.364 105.359 29.196C106.913 27.32 107.053 24.576 107.053 22.672V20.026ZM107.879 20.026H117.469V23.638H107.879V22.364H115.817V21.286H107.879V20.026ZM106.185 17.842H118.113V19.354H106.185V17.842ZM122.173 18.346C122.565 18.388 123.041 18.416 123.433 18.416C124.189 18.416 127.171 18.346 127.969 18.276C128.557 18.234 128.879 18.178 129.047 18.122L129.943 19.382C129.621 19.592 129.285 19.788 128.977 20.026C128.221 20.558 126.751 21.79 125.855 22.49C126.331 22.364 126.751 22.336 127.185 22.336C129.565 22.336 131.371 23.82 131.371 25.85C131.371 28.062 129.691 29.812 126.303 29.812C124.357 29.812 122.887 28.93 122.887 27.516C122.887 26.382 123.923 25.346 125.407 25.346C127.325 25.346 128.389 26.634 128.431 28.174L126.793 28.384C126.765 27.376 126.233 26.676 125.407 26.676C124.889 26.676 124.539 26.998 124.539 27.362C124.539 27.88 125.113 28.23 125.967 28.23C128.333 28.23 129.537 27.334 129.537 25.836C129.537 24.562 128.277 23.708 126.639 23.708C124.483 23.708 123.097 24.856 121.599 26.55L120.325 25.234C121.319 24.45 123.013 23.022 123.825 22.336C124.609 21.692 126.079 20.516 126.765 19.9C126.051 19.928 124.119 19.998 123.363 20.054C122.985 20.082 122.551 20.11 122.229 20.166L122.173 18.346Z" fill="white"/>
</svg>
