<svg width="240" height="48" viewBox="0 0 240 48" fill="none" xmlns="http://www.w3.org/2000/svg">
<rect width="240" height="48" rx="4" fill="#1B9240"/>
<path d="M109.517 22.42H118.477V23.918H109.517V22.42ZM110.007 19.592H118.001V21.062H110.007V19.592ZM112.975 20.306H114.655V22.56C114.655 24.338 113.969 26.55 110.637 27.992C110.427 27.642 109.909 27.068 109.517 26.774C112.681 25.626 112.975 23.834 112.975 22.532V20.306ZM114.907 23.484C115.467 25.038 116.657 26.13 118.505 26.606C118.141 26.942 117.679 27.586 117.455 28.02C115.383 27.334 114.179 25.892 113.493 23.778L114.907 23.484ZM108.971 22.574V27.726H107.333V24.128H105.695V22.574H108.971ZM108.971 26.998C109.531 27.922 110.595 28.328 112.051 28.384C113.689 28.454 116.867 28.412 118.757 28.258C118.575 28.65 118.295 29.462 118.225 29.966C116.531 30.05 113.703 30.078 112.023 30.008C110.301 29.938 109.139 29.532 108.229 28.44C107.613 28.986 106.983 29.518 106.227 30.134L105.401 28.384C106.031 27.992 106.787 27.502 107.431 26.998H108.971ZM105.723 18.444L106.969 17.436C107.809 18.024 108.845 18.906 109.321 19.564L107.977 20.67C107.557 20.012 106.549 19.074 105.723 18.444ZM115.859 17.1L117.581 17.632C117.063 18.444 116.517 19.27 116.069 19.816L114.697 19.326C115.103 18.71 115.607 17.786 115.859 17.1ZM110.371 17.716L111.799 17.142C112.317 17.772 112.835 18.654 113.031 19.27L111.505 19.928C111.351 19.326 110.861 18.402 110.371 17.716ZM125.015 17.66H131.469V18.976H125.015V17.66ZM124.791 21.692H131.721V23.008H124.791V21.692ZM124.791 23.694H131.665V25.01H124.791V23.694ZM125.463 28.37H131.035V29.7H125.463V28.37ZM123.685 19.662H132.701V21.02H123.685V19.662ZM124.567 25.71H131.917V30.204H130.223V27.012H126.177V30.246H124.567V25.71ZM122.649 17.142L124.217 17.646C123.265 20.026 121.725 22.532 120.129 24.114C119.989 23.722 119.541 22.798 119.261 22.392C120.591 21.132 121.893 19.144 122.649 17.142ZM121.305 21.02L122.887 19.424L122.901 19.438V30.218H121.305V21.02Z" fill="white"/>
</svg>
