<svg width="24" height="24" viewBox="0 0 24 24" fill="none" xmlns="http://www.w3.org/2000/svg">
<path fill-rule="evenodd" clip-rule="evenodd" d="M6.05192 5.10552C5.75903 4.81262 5.28415 4.81262 4.99126 5.10552C4.69837 5.39841 4.69837 5.87328 4.99126 6.16618L10.8267 12.0016L4.99517 17.8331C4.70228 18.1259 4.70228 18.6008 4.99517 18.8937C5.28806 19.1866 5.76294 19.1866 6.05583 18.8937L11.8873 13.0622L17.7192 18.8941C18.0121 19.187 18.487 19.187 18.7798 18.8941C19.0727 18.6012 19.0727 18.1263 18.7798 17.8334L12.948 12.0016L18.7837 6.1658C19.0766 5.8729 19.0766 5.39803 18.7837 5.10514C18.4909 4.81224 18.016 4.81224 17.7231 5.10514L11.8873 10.9409L6.05192 5.10552Z" fill="#468459"/>
</svg>
