<svg width="196" height="28" viewBox="0 0 196 28" fill="none" xmlns="http://www.w3.org/2000/svg">
<g clip-path="url(#clip0_144_3251)">
<path d="M133.887 6.21191H130.75V21.807H133.887V6.21191Z" fill="#468459"/>
<path d="M118.179 6.21191L112.154 21.8022H115.447L119.884 9.91923L124.315 21.8022H127.608L121.584 6.21191H118.179Z" fill="#468459"/>
<path d="M46.1796 6.21191L40.1553 21.8022H43.4484L47.8848 9.91923L52.3164 21.8022H55.6095L49.59 6.21191H46.1796Z" fill="#468459"/>
<path d="M89.7819 15.8363C89.7665 16.655 89.4296 17.4348 88.8438 18.0078C88.258 18.5808 87.4701 18.9011 86.65 18.8997C85.8558 18.9355 85.0798 18.655 84.4926 18.1199C83.9054 17.5849 83.5549 16.839 83.5181 16.0461C83.5157 16.0217 83.5157 15.9972 83.5181 15.9729V6.2168H80.3813V15.9729C80.4269 17.6032 81.1076 19.1514 82.2787 20.2884C83.4498 21.4254 85.0189 22.0615 86.6524 22.0615C88.286 22.0615 89.8551 21.4254 91.0262 20.2884C92.1973 19.1514 92.878 17.6032 92.9235 15.9729V6.2168H89.7917L89.7819 15.8363Z" fill="#468459"/>
<path d="M109.662 11.0949C109.656 9.79719 109.134 8.55501 108.212 7.64062C107.29 6.72622 106.042 6.21421 104.742 6.21681H97.5942V21.8266H100.682V8.93876H104.356C104.912 8.96514 105.436 9.20407 105.82 9.60598C106.204 10.0079 106.418 10.5419 106.418 11.0973C106.418 11.6527 106.204 12.1867 105.82 12.5886C105.436 12.9905 104.912 13.2295 104.356 13.2558H101.845L106.404 21.8217H109.765L106.428 15.6949C107.376 15.3548 108.196 14.7302 108.775 13.9067C109.355 13.0832 109.664 12.101 109.662 11.0949Z" fill="#468459"/>
<path d="M71.8453 6.21191L67.2476 12.4753L62.645 6.21191H58.7803V21.8022H61.917V10.4656L67.2476 17.5485L72.5782 10.4656V21.8022H75.7149V6.21191H71.8453Z" fill="#468459"/>
<path d="M33.3151 12.5095H28.9178C28.5022 12.4993 28.107 12.3273 27.8167 12.0302C27.5264 11.733 27.364 11.3343 27.3641 10.9193C27.364 10.5106 27.5238 10.1182 27.8095 9.82561C28.0953 9.53305 28.4842 9.36359 28.8934 9.35341H36.6767L38.3379 6.24121H28.908C27.6708 6.24376 26.4847 6.73426 25.608 7.60588C24.7313 8.4775 24.235 9.65965 24.2273 10.8949C24.2389 12.1222 24.7378 13.2949 25.6144 14.1554C26.491 15.016 27.6738 15.4942 28.9031 15.4851H33.3005C33.7229 15.4851 34.1281 15.6527 34.4268 15.9509C34.7255 16.2491 34.8933 16.6536 34.8933 17.0754C34.8933 17.4971 34.7255 17.9016 34.4268 18.1998C34.1281 18.4981 33.7229 18.6656 33.3005 18.6656H25.483L23.8218 21.7827H33.3005C34.5403 21.7918 35.7333 21.3105 36.6187 20.4439C37.504 19.5773 38.0097 18.396 38.0252 17.1583C38.0233 16.5504 37.9014 15.9488 37.6666 15.3878C37.4318 14.8269 37.0887 14.3177 36.6568 13.8892C36.2248 13.4607 35.7126 13.1213 35.1493 12.8904C34.586 12.6596 33.9827 12.5417 33.3738 12.5437L33.3151 12.5095Z" fill="#468459"/>
<path d="M13.7615 15.6949L6.32021 23.1486C4.18715 22.3445 2.40286 20.821 1.27626 18.842C0.14966 16.8629 -0.24832 14.5529 0.151224 12.3117C0.550768 10.0706 1.72268 8.0395 3.46406 6.5701C5.20545 5.10069 7.40667 4.28549 9.68661 4.26563C10.1559 4.26558 10.6246 4.29982 11.0889 4.36806L4.35118 11.0949C4.04095 11.4049 3.79493 11.773 3.62715 12.1779C3.45938 12.5829 3.37315 13.0169 3.37338 13.4552C3.37383 14.3402 3.72644 15.1889 4.35362 15.8144C4.9808 16.4399 5.83118 16.7911 6.71769 16.7906C7.60421 16.7902 8.45422 16.4381 9.08076 15.812L11.5237 13.3729C11.8258 13.0736 12.2341 12.9056 12.6597 12.9056C13.0853 12.9056 13.4936 13.0736 13.7957 13.3729C13.9478 13.5247 14.0686 13.7049 14.1509 13.9033C14.2333 14.1017 14.2757 14.3143 14.2757 14.529C14.2757 14.7438 14.2333 14.9564 14.1509 15.1548C14.0686 15.3532 13.9478 15.5334 13.7957 15.6851L13.7615 15.6949Z" fill="#468459"/>
<path d="M12.9897 4.85107L5.56794 12.3242C5.26772 12.6305 5.09961 13.042 5.09961 13.4706C5.09961 13.8991 5.26772 14.3106 5.56794 14.6169C5.71406 14.7712 5.89017 14.8941 6.08549 14.9781C6.28082 15.062 6.49125 15.1054 6.70392 15.1054C6.91658 15.1054 7.12701 15.062 7.32234 14.9781C7.51766 14.8941 7.69377 14.7712 7.83989 14.6169L10.2829 12.1779C10.8992 11.5609 11.7346 11.2118 12.6074 11.2063C13.4802 11.2008 14.3199 11.5395 14.944 12.1486L14.9685 12.1779C15.5909 12.8046 15.9401 13.6514 15.9401 14.534C15.9401 15.4166 15.5909 16.2634 14.9685 16.8901L8.26008 23.6316C8.72604 23.6996 9.19632 23.7339 9.66723 23.734C11.9435 23.7042 14.138 22.8819 15.8717 21.4091C17.6055 19.9362 18.7699 17.9052 19.1637 15.6667C19.5576 13.4282 19.1563 11.1226 18.0291 9.14797C16.9019 7.17335 15.1195 5.6536 12.9897 4.85107Z" fill="#468459"/>
</g>
<path d="M145.15 10.9062H145.888V10.0962H145.15V10.9062ZM151.774 15.2622L150.946 13.8942L150.406 14.9022C149.71 14.6262 149.08 14.3262 148.516 14.0022V14.9562H145.888V14.1282C145.324 14.5002 144.634 14.8782 143.818 15.2622H151.774ZM153.646 12.2742C153.394 11.9262 153.13 11.4882 152.854 10.9602C152.638 11.2002 152.302 11.5362 151.846 11.9682L151.09 10.8342V12.2382H149.02C149.692 12.5502 150.46 12.8562 151.324 13.1562C152.332 12.8442 153.106 12.5502 153.646 12.2742ZM155.482 10.8522C155.866 10.3482 156.154 9.68222 156.346 8.85422H154.564C154.816 9.68222 155.122 10.3482 155.482 10.8522ZM155.428 13.9662C154.612 14.4462 153.532 14.8782 152.188 15.2622H158.29C157.066 14.8662 156.112 14.4342 155.428 13.9662ZM149.254 10.9062V10.0962H148.516V10.9062H149.254ZM152.62 19.9242H159.19V21.9042H142.81V19.9242H145.096V17.5842H147.958V19.9242H149.686V17.1882H143.35V15.4422L142.342 13.5522C143.434 13.1682 144.394 12.7302 145.222 12.2382H145.15H143.17V8.67422H145.888V8.27822H142.666V6.40621H145.888V5.61421H148.516V6.40621H151.738V8.27822H148.516V8.67422H151.09V9.19621C152.014 8.23621 152.782 6.99422 153.394 5.47021L155.878 5.70422C155.746 6.13622 155.62 6.49622 155.5 6.78421H159.424V8.85422H158.74C158.5 10.3422 158.032 11.5182 157.336 12.3822C157.9 12.6702 158.674 12.9762 159.658 13.3002L158.65 15.3882V17.1882H152.62V17.6562H157.75V19.4022H152.62V19.9242Z" fill="#96C519"/>
<path d="M174.562 17.3322C173.818 16.0482 173.152 14.6562 172.564 13.1562V17.3322H174.562ZM169.774 13.1562C169.198 14.6202 168.52 16.0122 167.74 17.3322H169.774V13.1562ZM168.424 10.8702H165.13V8.92622C164.986 9.43022 164.824 9.91621 164.644 10.3842V17.1342C166.276 15.0822 167.536 12.9942 168.424 10.8702ZM177.442 8.53022V10.8702H173.95C174.874 13.1382 176.182 15.3102 177.874 17.3862L176.38 20.1582C175.984 19.5942 175.564 18.9642 175.12 18.2682V19.5462H172.564V22.2462H169.774V19.5462H167.164V18.2862C166.816 18.8382 166.384 19.4622 165.868 20.1582L164.644 18.7902V22.2462H161.998V14.8122C161.59 15.4962 161.17 16.0782 160.738 16.5582L160.126 13.0662C160.846 12.0942 161.434 11.0442 161.89 9.91622C162.358 8.77622 162.76 7.37821 163.096 5.72221L165.724 6.19022C165.604 7.00621 165.442 7.78621 165.238 8.53022H169.774V5.79422H172.564V8.53022H177.442Z" fill="#96C519"/>
<path d="M182.968 8.29622H181.546V11.8422C182.122 10.7022 182.596 9.52022 182.968 8.29622ZM187.216 10.4202H192.364V9.48421H187.216V10.4202ZM193.264 17.1882L195.388 17.4942C195.364 18.0462 195.346 18.4542 195.334 18.7182C195.322 18.9822 195.292 19.3062 195.244 19.6902C195.208 20.0622 195.184 20.3202 195.172 20.4642C195.16 20.6082 195.112 20.7942 195.028 21.0222C194.944 21.2502 194.884 21.3942 194.848 21.4542C194.812 21.5142 194.722 21.5982 194.578 21.7062C194.434 21.8262 194.314 21.8862 194.218 21.8862C194.134 21.8982 193.972 21.9222 193.732 21.9582C193.504 21.9942 193.312 22.0122 193.156 22.0122C193 22.0122 192.748 22.0122 192.4 22.0122C191.164 22.0122 190.396 21.9162 190.096 21.7242C189.808 21.5322 189.664 21.0582 189.664 20.3022V15.9462H189.034C188.974 17.4462 188.59 18.6822 187.882 19.6542C187.186 20.6262 186.064 21.4962 184.516 22.2642L183.112 20.1042C184.312 19.5642 185.164 18.9882 185.668 18.3762C186.172 17.7642 186.466 16.9542 186.55 15.9462H185.038C185.038 15.9702 185.038 16.0062 185.038 16.0542C185.05 16.1022 185.056 16.1382 185.056 16.1622C185.056 17.1822 184.84 17.9202 184.408 18.3762C183.988 18.8322 183.322 19.0602 182.41 19.0602H182.104L181.582 16.8642H181.708C182.08 16.8642 182.326 16.7862 182.446 16.6302C182.566 16.4622 182.626 16.1202 182.626 15.6042C182.626 15.1002 182.548 14.6502 182.392 14.2542C182.236 13.8582 181.954 13.4082 181.546 12.9042V22.2102H179.026V6.19022H185.434V7.21622H187.972V5.59621H190.924V7.21622H195.028V11.6442H193.498V12.5982H186.082V11.6442H184.75V10.2762C184.378 11.2122 184.054 11.9382 183.778 12.4542C184.054 12.8382 184.294 13.2402 184.498 13.6602H195.082V15.9462H192.202V19.3662C192.202 19.5582 192.22 19.6722 192.256 19.7082C192.304 19.7322 192.442 19.7442 192.67 19.7442C192.934 19.7442 193.09 19.6362 193.138 19.4202C193.186 19.2042 193.228 18.4602 193.264 17.1882Z" fill="#96C519"/>
<defs>
<clipPath id="clip0_144_3251">
<rect width="134" height="19" fill="white" transform="translate(0 4.5)"/>
</clipPath>
</defs>
</svg>
